<svg width="100" height="100" viewBox="0 0 100 100" fill="none" xmlns="http://www.w3.org/2000/svg">
<path d="M28.125 37.5C28.9538 37.5 29.7487 37.1708 30.3347 36.5847C30.9208 35.9987 31.25 35.2038 31.25 34.375C31.25 33.5462 30.9208 32.7513 30.3347 32.1653C29.7487 31.5792 28.9538 31.25 28.125 31.25C27.2962 31.25 26.5013 31.5792 25.9153 32.1653C25.3292 32.7513 25 33.5462 25 34.375C25 35.2038 25.3292 35.9987 25.9153 36.5847C26.5013 37.1708 27.2962 37.5 28.125 37.5ZM37.5 37.5C38.3288 37.5 39.1237 37.1708 39.7097 36.5847C40.2958 35.9987 40.625 35.2038 40.625 34.375C40.625 33.5462 40.2958 32.7513 39.7097 32.1653C39.1237 31.5792 38.3288 31.25 37.5 31.25C36.6712 31.25 35.8763 31.5792 35.2903 32.1653C34.7042 32.7513 34.375 33.5462 34.375 34.375C34.375 35.2038 34.7042 35.9987 35.2903 36.5847C35.8763 37.1708 36.6712 37.5 37.5 37.5ZM50 34.375C50 35.2038 49.6708 35.9987 49.0847 36.5847C48.4987 37.1708 47.7038 37.5 46.875 37.5C46.0462 37.5 45.2513 37.1708 44.6653 36.5847C44.0792 35.9987 43.75 35.2038 43.75 34.375C43.75 33.5462 44.0792 32.7513 44.6653 32.1653C45.2513 31.5792 46.0462 31.25 46.875 31.25C47.7038 31.25 48.4987 31.5792 49.0847 32.1653C49.6708 32.7513 50 33.5462 50 34.375Z" fill="#F28500"/>
<path d="M75 6.25C78.3152 6.25 81.4946 7.56696 83.8388 9.91117C86.183 12.2554 87.5 15.4348 87.5 18.75C90.8152 18.75 93.9946 20.067 96.3388 22.4112C98.683 24.7554 100 27.9348 100 31.25V81.25C100 84.5652 98.683 87.7446 96.3388 90.0888C93.9946 92.433 90.8152 93.75 87.5 93.75H25C21.6848 93.75 18.5054 92.433 16.1612 90.0888C13.817 87.7446 12.5 84.5652 12.5 81.25C9.18479 81.25 6.00537 79.933 3.66117 77.5888C1.31696 75.2446 0 72.0652 0 68.75V18.75C0 15.4348 1.31696 12.2554 3.66117 9.91117C6.00537 7.56696 9.18479 6.25 12.5 6.25H75ZM12.5 75V31.25C12.5 27.9348 13.817 24.7554 16.1612 22.4112C18.5054 20.067 21.6848 18.75 25 18.75H81.25C81.25 17.0924 80.5915 15.5027 79.4194 14.3306C78.2473 13.1585 76.6576 12.5 75 12.5H12.5C10.8424 12.5 9.25268 13.1585 8.08058 14.3306C6.90848 15.5027 6.25 17.0924 6.25 18.75V68.75C6.25 70.4076 6.90848 71.9973 8.08058 73.1694C9.25268 74.3415 10.8424 75 12.5 75ZM18.75 50V81.25C18.75 82.9076 19.4085 84.4973 20.5806 85.6694C21.7527 86.8415 23.3424 87.5 25 87.5H87.5C89.1576 87.5 90.7473 86.8415 91.9194 85.6694C93.0915 84.4973 93.75 82.9076 93.75 81.25V50H18.75ZM93.75 43.75V31.25C93.75 29.5924 93.0915 28.0027 91.9194 26.8306C90.7473 25.6585 89.1576 25 87.5 25H25C23.3424 25 21.7527 25.6585 20.5806 26.8306C19.4085 28.0027 18.75 29.5924 18.75 31.25V43.75H93.75Z" fill="#F28500"/>
</svg>
