<svg width="30" height="31" viewBox="0 0 30 31" fill="none" xmlns="http://www.w3.org/2000/svg">
<path d="M27.0126 24.0315C28.92 22.3315 30.0001 20.0656 30.0001 17.7142C30.0001 15.2152 28.8302 12.8781 26.7059 11.133C24.6385 9.43518 21.9019 8.5 18.9999 8.5C16.0979 8.5 13.3613 9.43518 11.2942 11.1332C9.16986 12.8781 8 15.2152 8 17.7142C8 20.2132 9.16986 22.5503 11.2942 24.2954C13.3613 25.9934 16.0979 26.9285 18.9999 26.9285C19.3866 26.9285 19.7756 26.9114 20.1614 26.8775L20.8206 27.4488C23.0913 29.4165 25.9952 30.4997 28.9998 30.4998H29.9998V28.3712L29.7069 28.0784C28.5515 26.9197 27.636 25.5445 27.0126 24.0315ZM22.1304 25.9373L20.8079 24.791L20.3669 24.8451C19.9133 24.9005 19.4568 24.9284 18.9999 24.9284C14.0374 24.9284 9.99998 21.6921 9.99998 17.7142C9.99998 13.7363 14.0374 10.5 18.9999 10.5C23.9623 10.5 27.9998 13.7363 27.9998 17.7142C27.9998 19.6961 27.0111 21.5463 25.2157 22.924L24.6398 23.366L24.9055 24.1181C25.4501 25.6544 26.2506 27.0874 27.2731 28.3567C25.3689 28.0388 23.5894 27.2016 22.1304 25.9373Z" fill="white"/>
<path d="M2.76153 19.3422C3.6976 18.1573 4.43256 16.8266 4.93701 15.4033L5.20076 14.6548L4.62533 14.2132C2.93234 12.9141 1.99998 11.1705 1.99998 9.30359C1.99998 5.55213 5.813 2.5001 10.4999 2.5001C13.9479 2.5001 16.9228 4.15196 18.2546 6.51881C18.5019 6.50681 18.7503 6.50006 18.9998 6.50006C19.5009 6.50006 19.9975 6.52437 20.4894 6.573C19.9747 5.23957 19.0809 4.02234 17.8519 3.01297C15.8793 1.39255 13.2686 0.500122 10.4999 0.500122C7.73117 0.500122 5.12045 1.39255 3.14772 3.01297C1.11786 4.68039 0 6.91443 0 9.30359C0 11.5411 1.02199 13.697 2.8281 15.3187C2.23869 16.7371 1.37746 18.0265 0.292934 19.1142L0 19.4071V21.4999H0.99999C2.84916 21.4997 4.6729 21.069 6.32687 20.2421C6.14551 19.5547 6.03924 18.8496 6.00994 18.1393C5.00606 18.7277 3.9065 19.1348 2.76153 19.3422Z" fill="white"/>
</svg>
