<svg width="90" height="90" viewBox="0 0 90 90" fill="none" xmlns="http://www.w3.org/2000/svg">
<path d="M81.0377 70.5943C86.76 65.4944 90.0001 58.6966 90.0001 51.6424C90.0001 44.1455 86.4905 37.1342 80.1177 31.8989C73.9152 26.8053 65.7054 23.9998 56.9995 23.9998C48.2936 23.9998 40.0838 26.8053 33.8823 31.8992C27.5095 37.1342 23.9999 44.1455 23.9999 51.6424C23.9999 59.1393 27.5095 66.1506 33.8823 71.3859C40.0838 76.4799 48.2936 79.2852 56.9995 79.2852C58.1596 79.2852 59.3268 79.2341 60.4842 79.1322L62.4615 80.8462C69.2737 86.7491 77.9853 89.9987 86.9992 89.9991H89.9992V83.6134L89.1206 82.735C85.6545 79.2587 82.9078 75.1331 81.0377 70.5943ZM66.3911 76.3117L62.4235 72.8728L61.1005 73.035C59.7398 73.2014 58.3703 73.2848 56.9995 73.2849C42.1122 73.2849 29.9998 63.5761 29.9998 51.6424C29.9998 39.7087 42.1122 29.9997 56.9995 29.9997C71.8869 29.9997 83.9993 39.7085 83.9993 51.6424C83.9993 57.588 81.033 63.1387 75.647 67.2719L73.9192 68.5977L74.7164 70.8542C76.3502 75.4628 78.7517 79.762 81.8192 83.5698C76.1066 82.6162 70.768 80.1047 66.3911 76.3117Z" fill="#F28500"/>
<path d="M8.2846 56.5262C11.0928 52.9714 13.2977 48.9793 14.811 44.7095L15.6023 42.4642L13.876 41.1393C8.79703 37.242 5.99994 32.0112 5.99994 26.4104C5.99994 15.156 17.439 5.99994 31.4997 5.99994C41.8436 5.99994 50.7683 10.9555 54.7639 18.0561C55.5058 18.0201 56.2509 17.9998 56.9994 17.9998C58.5028 17.9998 59.9924 18.0727 61.4682 18.2186C59.9242 14.2184 57.2426 10.5666 53.5558 7.53855C47.638 2.67728 39.8058 0 31.4997 0C23.1935 0 15.3613 2.67728 9.44315 7.53855C3.35359 12.5408 0 19.2429 0 26.4104C0 33.1228 3.06597 39.5906 8.48429 44.4558C6.71607 48.711 4.13237 52.5792 0.878803 55.8424L0 56.721V62.9993H2.99997C8.54749 62.9986 14.0187 61.7068 18.9806 59.2259C18.4365 57.1637 18.1177 55.0486 18.0298 52.9176C15.0182 54.6826 11.7195 55.9041 8.2846 56.5262Z" fill="#F28500"/>
</svg>
