<svg width="34" height="30" viewBox="0 0 34 30" fill="none" xmlns="http://www.w3.org/2000/svg">
<path d="M30.5651 2.61918C29.7343 1.7884 28.748 1.12947 27.6624 0.68006C26.5769 0.230648 25.4134 -0.000440558 24.2385 6.30538e-07C23.0636 0.000441819 21.9003 0.232404 20.8151 0.682632C19.7298 1.13286 18.744 1.79253 17.9138 2.62393L16.8302 3.72078L15.7555 2.62631L15.7486 2.61932C14.9182 1.78893 13.9324 1.13022 12.8474 0.680818C11.7624 0.231413 10.5996 0.000106434 9.42524 0.000106434C8.25089 0.000106434 7.08805 0.231413 6.00309 0.680818C4.91813 1.13022 3.93232 1.78893 3.10193 2.61932L2.61918 3.10207C0.942147 4.77911 0 7.05366 0 9.42535C0 11.797 0.942147 14.0716 2.61918 15.7486L15.3603 28.4896L16.7992 29.9971L16.8335 29.9628L16.8707 30L18.2188 28.5777L31.0479 15.7484C32.7224 14.07 33.6628 11.796 33.6628 9.42514C33.6628 7.05429 32.7224 4.78024 31.0479 3.10186L30.5651 2.61918ZM29.4667 14.1676L16.8335 26.8012L4.1999 14.1676C2.94213 12.9098 2.23553 11.2039 2.23553 9.42517C2.23553 7.64641 2.94213 5.94051 4.1999 4.68273L4.68273 4.19997C5.93989 2.94282 7.64477 2.23627 9.42265 2.2356C11.2005 2.23493 12.906 2.9402 14.1641 4.19641L16.8254 6.90619L19.4993 4.19997C20.1221 3.57718 20.8614 3.08315 21.6752 2.7461C22.4889 2.40904 23.361 2.23556 24.2418 2.23556C25.1225 2.23556 25.9947 2.40904 26.8084 2.7461C27.6221 3.08315 28.3615 3.57718 28.9843 4.19997L29.467 4.68266C30.7229 5.94147 31.4282 7.64704 31.4281 9.4252C31.4281 11.2034 30.7227 12.9089 29.4667 14.1676Z" fill="white"/>
</svg>
